<?xml version="1.0" encoding="utf-8"?>
<!-- Generator: Adobe Illustrator 21.0.0, SVG Export Plug-In . SVG Version: 6.00 Build 0)  -->
<svg version="1.1" id="Layer_1" xmlns="http://www.w3.org/2000/svg" xmlns:xlink="http://www.w3.org/1999/xlink" x="0px" y="0px"
	 viewBox="0 0 1024 1024" style="enable-background:new 0 0 1024 1024;" xml:space="preserve">
<style type="text/css">
	.st0{fill:#FFFFFF;}
</style>
<path class="st0" d="M512.3,14C229.2,13.9,0,243,0,525.8c0,223.6,143.4,413.7,343.1,483.5c26.9,6.8,22.8-12.4,22.8-25.4v-88.7
	c-155.3,18.2-161.6-84.6-172-101.7c-21.1-35.9-70.8-45.1-56-62.3c35.4-18.2,71.4,4.6,113.2,66.3c30.2,44.7,89.2,37.2,119,29.8
	c6.5-26.9,20.5-50.9,39.7-69.6c-160.9-28.8-228-127-228-243.8c0-56.7,18.7-108.7,55.3-150.7c-23.3-69.2,2.2-128.5,5.6-137.3
	c66.5-6,135.6,47.6,141,51.8c37.8-10.2,80.9-15.6,129.2-15.6c48.5,0,91.8,5.6,129.9,15.9c12.9-9.8,77-55.8,138.8-50.2
	c3.3,8.8,28.3,66.7,6.3,135c37.1,42.1,56,94.6,56,151.4c0,117-67.5,215.3-228.9,243.7c27.9,27.5,43.6,65,43.6,104.1v128.8
	c0.9,10.3,0,20.5,17.2,20.5c202.7-68.3,348.6-259.8,348.6-485.4C1024.4,243,795.1,14,512.3,14L512.3,14z"/>
</svg>
